<svg width="93" height="93" viewBox="0 0 93 93" fill="none" xmlns="http://www.w3.org/2000/svg">
<rect x="0.5" y="0.5" width="92" height="92" rx="9.5" fill="#F1F1F1" fill-opacity="0.5" stroke="#F1F1F1"/>
<path d="M60.25 37.3333C64.047 37.3333 67.125 34.2553 67.125 30.4583C67.125 26.6614 64.047 23.5833 60.25 23.5833C56.453 23.5833 53.375 26.6614 53.375 30.4583C53.375 34.2553 56.453 37.3333 60.25 37.3333Z" stroke="#5580FF" stroke-width="2"/>
<path d="M60.25 69.4167C64.047 69.4167 67.125 66.3386 67.125 62.5417C67.125 58.7447 64.047 55.6667 60.25 55.6667C56.453 55.6667 53.375 58.7447 53.375 62.5417C53.375 66.3386 56.453 69.4167 60.25 69.4167Z" stroke="#5580FF" stroke-width="2"/>
<path d="M32.75 53.375C36.547 53.375 39.625 50.297 39.625 46.5C39.625 42.703 36.547 39.625 32.75 39.625C28.953 39.625 25.875 42.703 25.875 46.5C25.875 50.297 28.953 53.375 32.75 53.375Z" stroke="#5580FF" stroke-width="2"/>
<path d="M54.31 59.0767L38.6946 49.9673M54.31 33.9233L38.6946 43.0327L54.31 33.9233Z" stroke="#5580FF" stroke-width="2" stroke-linecap="round" stroke-linejoin="round"/>
</svg>
