<svg width="93" height="93" viewBox="0 0 93 93" fill="none" xmlns="http://www.w3.org/2000/svg">
<rect x="0.5" y="0.5" width="92" height="92" rx="9.5" fill="#F1F1F1" fill-opacity="0.5" stroke="#F1F1F1"/>
<path d="M46.5 22.4375C31.3105 22.4375 19 32.4385 19 44.7812C19 50.1094 21.2988 54.9863 25.123 58.8213C23.7803 64.2354 19.29 69.0586 19.2363 69.1123C19 69.3594 18.9355 69.7246 19.0752 70.0469C19.2148 70.3691 19.5156 70.5625 19.8594 70.5625C26.9814 70.5625 32.3203 67.1465 34.9629 65.041C38.4756 66.3623 42.375 67.125 46.5 67.125C61.6895 67.125 74 57.124 74 44.7812C74 32.4385 61.6895 22.4375 46.5 22.4375ZM32.7715 51.6562H31.4609C30.9883 51.6562 30.6016 51.2695 30.6016 50.7969V49.0781C30.6016 48.6055 30.9883 48.2188 31.4609 48.2188H32.7822C33.4268 48.2188 33.8994 47.8428 33.8994 47.5098C33.8994 47.3701 33.8135 47.2197 33.6738 47.1016L31.3213 45.082C30.4082 44.3086 29.8926 43.2021 29.8926 42.0635C29.8926 39.7754 31.9336 37.917 34.4473 37.917H35.7578C36.2305 37.917 36.6172 38.3037 36.6172 38.7764V40.4951C36.6172 40.9678 36.2305 41.3545 35.7578 41.3545H34.4365C33.792 41.3545 33.3193 41.7305 33.3193 42.0635C33.3193 42.2031 33.4053 42.3535 33.5449 42.4717L35.8975 44.4912C36.8105 45.2646 37.3262 46.3711 37.3262 47.5098C37.3369 49.7979 35.2852 51.6562 32.7715 51.6562ZM53.375 50.7969C53.375 51.2695 52.9883 51.6562 52.5156 51.6562H50.7969C50.3242 51.6562 49.9375 51.2695 49.9375 50.7969V43.4707L47.2734 49.4648C46.9619 50.0986 46.0488 50.0986 45.7373 49.4648L43.0625 43.4707V50.7969C43.0625 51.2695 42.6758 51.6562 42.2031 51.6562H40.4844C40.0117 51.6562 39.625 51.2695 39.625 50.7969V39.625C39.625 38.6797 40.3984 37.9062 41.3438 37.9062H43.0625C43.7178 37.9062 44.3086 38.2715 44.5986 38.8516L46.5 42.6543L48.4014 38.8516C48.6914 38.2715 49.293 37.9062 49.9375 37.9062H51.6562C52.6016 37.9062 53.375 38.6797 53.375 39.625V50.7969ZM58.5635 51.6562H57.2422C56.7695 51.6562 56.3828 51.2695 56.3828 50.7969V49.0781C56.3828 48.6055 56.7695 48.2188 57.2422 48.2188H58.5635C59.208 48.2188 59.6807 47.8428 59.6807 47.5098C59.6807 47.3701 59.5947 47.2197 59.4551 47.1016L57.1025 45.082C56.1895 44.3086 55.6738 43.2021 55.6738 42.0635C55.6738 39.7754 57.7148 37.917 60.2285 37.917H61.5391C62.0117 37.917 62.3984 38.3037 62.3984 38.7764V40.4951C62.3984 40.9678 62.0117 41.3545 61.5391 41.3545H60.2178C59.5732 41.3545 59.1006 41.7305 59.1006 42.0635C59.1006 42.2031 59.1865 42.3535 59.3262 42.4717L61.6787 44.4912C62.5918 45.2646 63.1074 46.3711 63.1074 47.5098C63.1182 49.7979 61.0771 51.6562 58.5635 51.6562Z" fill="#5580FF"/>
</svg>
