<svg width="93" height="93" viewBox="0 0 93 93" fill="none" xmlns="http://www.w3.org/2000/svg">
<rect x="0.5" y="0.5" width="92" height="92" rx="9.5" fill="#F1F1F1" fill-opacity="0.5" stroke="#F1F1F1"/>
<path d="M63.6875 68.8438H63.3953C29.6219 66.9016 24.8266 38.4047 24.1563 29.7078C24.1023 29.0316 24.1822 28.3514 24.3915 27.7062C24.6008 27.0609 24.9354 26.4633 25.3761 25.9476C25.8168 25.4319 26.3549 25.0082 26.9596 24.7008C27.5643 24.3934 28.2237 24.2084 28.9 24.1563H38.3703C39.0588 24.1556 39.7316 24.3617 40.3016 24.7478C40.8716 25.1339 41.3125 25.6823 41.5672 26.3219L44.1797 32.75C44.4312 33.3748 44.4937 34.0598 44.3592 34.7198C44.2248 35.3799 43.8994 35.9858 43.4235 36.4625L39.7625 40.1578C40.3344 43.4075 41.8906 46.4032 44.2208 48.7395C46.5509 51.0757 49.5424 52.6399 52.7906 53.2203L56.5203 49.525C57.0041 49.0543 57.6158 48.7365 58.2791 48.6112C58.9423 48.4859 59.6278 48.5586 60.25 48.8203L66.7297 51.4156C67.3597 51.6784 67.8971 52.1228 68.2736 52.6921C68.6501 53.2614 68.8486 53.93 68.8438 54.6125V63.6875C68.8438 65.055 68.3005 66.3665 67.3335 67.3335C66.3665 68.3005 65.055 68.8438 63.6875 68.8438ZM29.3125 27.5938C28.8567 27.5938 28.4195 27.7748 28.0972 28.0972C27.7748 28.4195 27.5938 28.8567 27.5938 29.3125V29.45C28.3844 39.625 33.4547 63.6875 63.5844 65.4062C63.8102 65.4202 64.0365 65.3894 64.2504 65.3157C64.4643 65.242 64.6615 65.1268 64.8308 64.9767C65 64.8266 65.138 64.6446 65.2368 64.441C65.3355 64.2375 65.3931 64.0165 65.4063 63.7906V54.6125L58.9266 52.0172L53.9938 56.9156L53.1688 56.8125C38.2156 54.9391 36.1875 39.9859 36.1875 39.8313L36.0844 39.0063L40.9656 34.0734L38.3875 27.5938H29.3125Z" fill="#5580FF"/>
</svg>
