<svg width="93" height="93" viewBox="0 0 93 93" fill="none" xmlns="http://www.w3.org/2000/svg">
<rect x="0.5" y="0.5" width="92" height="92" rx="9.5" fill="#F1F1F1" fill-opacity="0.5" stroke="#F1F1F1"/>
<g clip-path="url(#clip0_103_14)">
<path d="M71.25 27.25H21.75C21.0207 27.25 20.3212 27.5397 19.8055 28.0555C19.2897 28.5712 19 29.2707 19 30V63C19 63.7293 19.2897 64.4288 19.8055 64.9445C20.3212 65.4603 21.0207 65.75 21.75 65.75H71.25C71.9793 65.75 72.6788 65.4603 73.1945 64.9445C73.7103 64.4288 74 63.7293 74 63V30C74 29.2707 73.7103 28.5712 73.1945 28.0555C72.6788 27.5397 71.9793 27.25 71.25 27.25V27.25ZM54.75 38.25H65.75V41H54.75V38.25ZM49.25 59.7083C48.804 59.3675 48.3148 59.0873 47.7952 58.875C44.5502 57.478 39.6525 55.41 39.6525 52.891C39.6525 51.3758 40.6397 51.8707 41.077 49.0987C41.2585 47.9492 42.1357 49.0795 42.3007 46.456C42.3007 45.411 41.8222 45.1497 41.8222 45.1497C41.8222 45.1497 42.0642 43.6042 42.1605 42.4107C42.2595 41.165 41.5527 37.4607 38.6487 36.644C38.1372 36.127 37.7935 36.3388 39.3582 35.511C35.9372 35.3488 35.1397 37.139 33.3192 38.4562C31.7682 39.6112 31.3475 41.44 31.4245 42.4135C31.5263 43.6042 31.7683 45.1525 31.7683 45.1525C31.7683 45.1525 31.287 45.411 31.287 46.456C31.4547 49.0795 32.332 47.9492 32.5108 49.0987C32.9453 51.8707 33.938 51.3758 33.938 52.891C33.938 55.41 29.0402 57.478 25.7952 58.875C25.3391 59.0661 24.9048 59.3058 24.5 59.59V32.75H49.25V59.7083V59.7083ZM68.5 49.25H54.75V46.5H68.5V49.25Z" fill="#5580FF"/>
</g>
<defs>
<clipPath id="clip0_103_14">
<rect width="55" height="55" fill="white" transform="translate(19 19)"/>
</clipPath>
</defs>
</svg>
