<svg width="93" height="93" viewBox="0 0 93 93" fill="none" xmlns="http://www.w3.org/2000/svg">
<rect x="0.5" y="0.5" width="92" height="92" rx="9.5" fill="#F1F1F1" fill-opacity="0.5" stroke="#F1F1F1"/>
<path fill-rule="evenodd" clip-rule="evenodd" d="M19 46.6535C19 60.3256 28.9298 71.6946 41.9167 74V54.1381H35.0417V46.5H41.9167V40.3881C41.9167 33.5131 46.3465 29.6952 52.6119 29.6952C54.5965 29.6952 56.7369 30 58.7215 30.3048V37.3333H55.2083C51.8465 37.3333 51.0833 39.0131 51.0833 41.1535V46.5H58.4167L57.1952 54.1381H51.0833V74C64.0702 71.6946 74 60.3279 74 46.6535C74 31.4438 61.625 19 46.5 19C31.375 19 19 31.4438 19 46.6535Z" fill="#5580FF"/>
</svg>
